<?xml version="1.0" encoding="utf-8"?>
<!-- Generator: Adobe Illustrator 22.0.1, SVG Export Plug-In . SVG Version: 6.00 Build 0)  -->
<svg version="1.1" id="Layer_1" xmlns="http://www.w3.org/2000/svg" xmlns:xlink="http://www.w3.org/1999/xlink" x="0px" y="0px"
	 viewBox="0 0 258 64" style="enable-background:new 0 0 258 64;" xml:space="preserve" width="258px" height="64px">
<style type="text/css">
	.st0{fill:#FF6B00;}
	.st1{opacity:0.35;}
	.st2{fill:url(#SVGID_1_);}
	.st3{fill:url(#SVGID_2_);}
	.st4{fill:url(#SVGID_3_);}
	.st5{fill:url(#SVGID_4_);}
	.st6{fill:url(#SVGID_5_);}
	.st7{fill:url(#SVGID_6_);}
	.st8{fill:url(#SVGID_7_);}
	.st9{fill:url(#SVGID_8_);}
	.st10{fill:url(#SVGID_9_);}
	.st11{fill:url(#SVGID_10_);}
	.st12{fill:#54565A;}
</style>
<title>secondary</title>
<g>
	<g id="Layer_2_1_">
		<g id="Layer_1-2">
			<path class="st0" d="M15.7,8.2c-3.2,0-5.8,2.6-5.8,5.8c0,0,0,0,0,0.1c0,1.6,0.6,3,1.7,4.1c1.1,1.2,2.6,1.8,4.1,1.8
				c1.6,0,3.1-0.6,4.2-1.7c1.1-1.1,1.8-2.6,1.7-4.2c0-2.9,0.3-4.7,1-5.4c0.7-0.7,2.5-1.1,5.5-1.1c1.6,0,3.1-0.6,4.2-1.7
				C33.4,4.8,34,3.3,34,1.8c0-0.4-0.1-0.9-0.2-1.3l-1-0.1L32,0.2l-1-0.1c-0.5,0-1.1-0.1-1.6-0.1H29c-2.3,0-4.5,0.3-6.7,0.8
				c-0.1,0.3-0.1,0.6-0.1,1c0,2.9-0.3,4.7-1,5.4S18.7,8.2,15.7,8.2z"/>
			<path class="st0" d="M7.5,18.3c1.1-1.1,1.7-2.6,1.7-4.2c0-2.9,0.3-4.7,1-5.4s2.5-1.1,5.5-1.1c1.6,0,3.1-0.6,4.2-1.7
				c1.1-1.1,1.8-2.5,1.7-4.1c0-0.3,0-0.5-0.1-0.8C12,3.3,4.1,9.9,0,18.9c1,0.7,2.2,1.1,3.4,1.1C4.9,20,6.4,19.4,7.5,18.3z"/>
			<path class="st0" d="M40.5,7.6c1.6,0,3.1-0.6,4.2-1.7c0.3-0.4,0.6-0.7,0.9-1.2c-3.3-2-7-3.4-10.9-4.1c-0.1,0.4-0.1,0.8-0.1,1.2
				c0,1.6,0.6,3,1.7,4.1C37.4,7,38.9,7.6,40.5,7.6z"/>
			<path class="st0" d="M28.2,32.4c3,0,4.8,0.3,5.5,1c0.7,0.7,1,2.5,1,5.4c0,1.6,0.6,3.1,1.7,4.2c2.3,2.3,6.1,2.2,8.4-0.1
				c1.1-1.1,1.7-2.6,1.7-4.1c0-1.5-0.6-3-1.7-4.1c-1.1-1.1-2.6-1.8-4.2-1.7c-3,0-4.8-0.4-5.5-1s-1-2.5-1-5.4c0-1.6-0.6-3.1-1.7-4.2
				c-1.1-1.1-2.6-1.7-4.1-1.7c-3.3,0-5.9,2.7-5.9,5.9c0,1.6,0.6,3,1.8,4.1C25.1,31.7,26.6,32.4,28.2,32.4z"/>
			<path class="st0" d="M40.5,20.6c-1.6,0-3,0.6-4.1,1.7c-1.2,1.1-1.8,2.6-1.8,4.1c0,3.3,2.6,5.9,5.9,5.9c1.6,0,3.1-0.6,4.2-1.7
				c1.1-1.1,1.8-2.6,1.7-4.2c0-1.6-0.6-3-1.7-4.1C43.6,21.2,42.1,20.6,40.5,20.6z"/>
			<path class="st0" d="M6.2,50.2c-1,0-2,0.3-2.8,0.8c2.2,3,5,5.6,8.1,7.7c0.4-0.8,0.6-1.7,0.6-2.6c0-1.5-0.6-3-1.7-4.1
				C9.2,50.8,7.7,50.2,6.2,50.2z"/>
			<path class="st0" d="M48.9,47.1c-1.2,1.1-1.8,2.6-1.8,4.1c0,3-0.3,4.8-1,5.5c-0.7,0.7-2.5,1-5.5,1c-1.6,0-3,0.6-4.1,1.7
				c-1.1,1-1.8,2.5-1.8,4c9.6-1.8,17.8-7.8,22.4-16.4c-1.1-1.1-2.6-1.7-4.1-1.7C51.5,45.3,50,46,48.9,47.1z"/>
			<path class="st0" d="M15.7,20.6c-3.2,0-5.8,2.6-5.8,5.8c0,0,0,0,0,0.1c0,1.6,0.6,3,1.7,4.1c1.1,1.2,2.6,1.8,4.2,1.8
				c3.3,0,5.9-2.6,5.9-5.9c0-3.2-2.6-5.8-5.8-5.8C15.8,20.6,15.8,20.6,15.7,20.6L15.7,20.6z"/>
			<path class="st0" d="M15.9,57.7c-1.4,0-2.7,0.5-3.8,1.4c3,1.9,6.2,3.2,9.7,4c-0.1-1.4-0.7-2.7-1.7-3.7
				C19,58.3,17.4,57.7,15.9,57.7z"/>
			<path class="st0" d="M57.1,34.7c-1.1-1.1-2.6-1.8-4.2-1.7c-3.2,0.1-5.8,2.7-5.8,5.9c0,3-0.3,4.8-1,5.5s-2.5,1-5.4,1
				c-3.2,0-5.9,2.5-5.9,5.7c0,0,0,0.1,0,0.1c0,2.9-0.4,4.8-1.1,5.5c-0.7,0.7-2.5,1-5.5,1c-1.6,0-3.1,0.6-4.2,1.7
				c-1.1,1-1.7,2.4-1.7,3.8c3.9,0.8,7.8,0.9,11.7,0.3c0-2.9,0.3-4.7,1-5.4c0.7-0.7,2.6-1,5.5-1c3.2,0,5.9-2.7,5.9-5.9
				c0-3,0.4-4.8,1-5.5c0.7-0.7,2.5-1,5.4-1c1.6,0,3.1-0.6,4.2-1.7c1.1-1.1,1.7-2.6,1.7-4.1C58.9,37.3,58.3,35.8,57.1,34.7z"/>
			<g class="st1">

					<linearGradient id="SVGID_1_" gradientUnits="userSpaceOnUse" x1="15.2779" y1="-19.9785" x2="59.313" y2="-64.0135" gradientTransform="matrix(1 0 0 -1 0 -18.08)">
					<stop  offset="0" style="stop-color:#54565A"/>
					<stop  offset="1" style="stop-color:#54565A;stop-opacity:0"/>
				</linearGradient>
				<path class="st2" d="M15.7,8.2c-3.2,0-5.8,2.6-5.8,5.8c0,0,0,0,0,0.1c0,1.6,0.6,3,1.7,4.1c1.1,1.2,2.6,1.8,4.1,1.8
					c1.6,0,3.1-0.6,4.2-1.7c1.1-1.1,1.8-2.6,1.7-4.2c0-2.9,0.3-4.7,1-5.4c0.7-0.7,2.5-1.1,5.5-1.1c1.6,0,3.1-0.6,4.2-1.7
					C33.4,4.8,34,3.3,34,1.8c0-0.4-0.1-0.9-0.2-1.3l-1-0.1L32,0.2l-1-0.1c-0.5,0-1.1-0.1-1.6-0.1H29c-2.3,0-4.5,0.3-6.7,0.8
					c-0.1,0.3-0.1,0.6-0.1,1c0,2.9-0.3,4.7-1,5.4S18.7,8.2,15.7,8.2z"/>

					<linearGradient id="SVGID_2_" gradientUnits="userSpaceOnUse" x1="9.0224" y1="-26.2416" x2="53.0649" y2="-70.2766" gradientTransform="matrix(1 0 0 -1 0 -18.08)">
					<stop  offset="0" style="stop-color:#54565A"/>
					<stop  offset="1" style="stop-color:#54565A;stop-opacity:0"/>
				</linearGradient>
				<path class="st3" d="M7.5,18.3c1.1-1.1,1.7-2.6,1.7-4.2c0-2.9,0.3-4.7,1-5.4s2.5-1.1,5.5-1.1c1.6,0,3.1-0.6,4.2-1.7
					c1.1-1.1,1.8-2.5,1.7-4.1c0-0.3,0-0.5-0.1-0.8C12,3.3,4.1,9.9,0,18.9c1,0.7,2.2,1.1,3.4,1.1C4.9,20,6.4,19.4,7.5,18.3z"/>

					<linearGradient id="SVGID_3_" gradientUnits="userSpaceOnUse" x1="26.3809" y1="-8.8755" x2="70.431" y2="-52.9181" gradientTransform="matrix(1 0 0 -1 0 -18.08)">
					<stop  offset="0" style="stop-color:#54565A"/>
					<stop  offset="1" style="stop-color:#54565A;stop-opacity:0"/>
				</linearGradient>
				<path class="st4" d="M40.5,7.6c1.6,0,3.1-0.6,4.2-1.7c0.3-0.4,0.6-0.7,0.9-1.2c-3.3-2-7-3.4-10.9-4.1c-0.1,0.4-0.1,0.8-0.1,1.2
					c0,1.6,0.6,3,1.7,4.1C37.4,7,38.9,7.6,40.5,7.6z"/>

					<linearGradient id="SVGID_4_" gradientUnits="userSpaceOnUse" x1="9.4268" y1="-25.8372" x2="53.4618" y2="-69.8722" gradientTransform="matrix(1 0 0 -1 0 -18.08)">
					<stop  offset="0" style="stop-color:#54565A"/>
					<stop  offset="1" style="stop-color:#54565A;stop-opacity:0"/>
				</linearGradient>
				<path class="st5" d="M28.2,32.4c3,0,4.8,0.3,5.5,1c0.7,0.7,1,2.5,1,5.4c0,1.6,0.6,3.1,1.7,4.2c2.3,2.3,6.1,2.2,8.4-0.1
					c1.1-1.1,1.7-2.6,1.7-4.1c0-1.5-0.6-3-1.7-4.1c-1.1-1.1-2.6-1.8-4.2-1.7c-3,0-4.8-0.4-5.5-1s-1-2.5-1-5.4c0-1.6-0.6-3.1-1.7-4.2
					c-1.1-1.1-2.6-1.7-4.1-1.7c-3.3,0-5.9,2.7-5.9,5.9c0,1.6,0.6,3,1.8,4.1C25.1,31.7,26.6,32.4,28.2,32.4z"/>

					<linearGradient id="SVGID_5_" gradientUnits="userSpaceOnUse" x1="15.5915" y1="-19.6724" x2="59.6266" y2="-63.7075" gradientTransform="matrix(1 0 0 -1 0 -18.08)">
					<stop  offset="0" style="stop-color:#54565A"/>
					<stop  offset="1" style="stop-color:#54565A;stop-opacity:0"/>
				</linearGradient>
				<path class="st6" d="M40.5,20.6c-1.6,0-3,0.6-4.1,1.7c-1.2,1.1-1.8,2.6-1.8,4.1c0,3.3,2.6,5.9,5.9,5.9c1.6,0,3.1-0.6,4.2-1.7
					c1.1-1.1,1.8-2.6,1.7-4.2c0-1.6-0.6-3-1.7-4.1C43.6,21.2,42.1,20.6,40.5,20.6z"/>

					<linearGradient id="SVGID_6_" gradientUnits="userSpaceOnUse" x1="-13.8228" y1="-49.0868" x2="30.2122" y2="-93.1218" gradientTransform="matrix(1 0 0 -1 0 -18.08)">
					<stop  offset="0" style="stop-color:#54565A"/>
					<stop  offset="1" style="stop-color:#54565A;stop-opacity:0"/>
				</linearGradient>
				<path class="st7" d="M6.2,50.2c-1,0-2,0.3-2.8,0.8c2.2,3,5,5.6,8.1,7.7c0.4-0.8,0.6-1.7,0.6-2.6c0-1.5-0.6-3-1.7-4.1
					C9.2,50.8,7.7,50.2,6.2,50.2z"/>

					<linearGradient id="SVGID_7_" gradientUnits="userSpaceOnUse" x1="3.9387" y1="-31.3177" x2="47.9813" y2="-75.3603" gradientTransform="matrix(1 0 0 -1 0 -18.08)">
					<stop  offset="0" style="stop-color:#54565A"/>
					<stop  offset="1" style="stop-color:#54565A;stop-opacity:0"/>
				</linearGradient>
				<path class="st8" d="M48.9,47.1c-1.2,1.1-1.8,2.6-1.8,4.1c0,3-0.3,4.8-1,5.5c-0.7,0.7-2.5,1-5.5,1c-1.6,0-3,0.6-4.1,1.7
					c-1.1,1-1.8,2.5-1.8,4c9.6-1.8,17.8-7.8,22.4-16.4c-1.1-1.1-2.6-1.7-4.1-1.7C51.5,45.3,50,46,48.9,47.1z"/>

					<linearGradient id="SVGID_8_" gradientUnits="userSpaceOnUse" x1="3.2473" y1="-32.0092" x2="47.2898" y2="-76.0517" gradientTransform="matrix(1 0 0 -1 0 -18.08)">
					<stop  offset="0" style="stop-color:#54565A"/>
					<stop  offset="1" style="stop-color:#54565A;stop-opacity:0"/>
				</linearGradient>
				<path class="st9" d="M15.7,20.6c-3.2,0-5.8,2.6-5.8,5.8c0,0,0,0,0,0.1c0,1.6,0.6,3,1.7,4.1c1.1,1.2,2.6,1.8,4.2,1.8
					c3.3,0,5.9-2.6,5.9-5.9c0-3.2-2.6-5.8-5.8-5.8C15.8,20.6,15.8,20.6,15.7,20.6L15.7,20.6z"/>

					<linearGradient id="SVGID_9_" gradientUnits="userSpaceOnUse" x1="-12.989" y1="-48.2454" x2="31.0536" y2="-92.288" gradientTransform="matrix(1 0 0 -1 0 -18.08)">
					<stop  offset="0" style="stop-color:#54565A"/>
					<stop  offset="1" style="stop-color:#54565A;stop-opacity:0"/>
				</linearGradient>
				<path class="st10" d="M15.9,57.7c-1.4,0-2.7,0.5-3.8,1.4c3,1.9,6.2,3.2,9.7,4c-0.1-1.4-0.7-2.7-1.7-3.7
					C19,58.3,17.4,57.7,15.9,57.7z"/>

					<linearGradient id="SVGID_10_" gradientUnits="userSpaceOnUse" x1="3.9789" y1="-31.27" x2="48.0215" y2="-75.3126" gradientTransform="matrix(1 0 0 -1 0 -18.08)">
					<stop  offset="0" style="stop-color:#54565A"/>
					<stop  offset="1" style="stop-color:#54565A;stop-opacity:0"/>
				</linearGradient>
				<path class="st11" d="M57.1,34.7c-1.1-1.1-2.6-1.8-4.2-1.7c-3.2,0.1-5.8,2.7-5.8,5.9c0,3-0.3,4.8-1,5.5s-2.5,1-5.4,1
					c-3.2,0-5.9,2.5-5.9,5.7c0,0,0,0.1,0,0.1c0,2.9-0.4,4.8-1.1,5.5c-0.7,0.7-2.5,1-5.5,1c-1.6,0-3.1,0.6-4.2,1.7
					c-1.1,1-1.7,2.4-1.7,3.8c3.9,0.8,7.8,0.9,11.7,0.3c0-2.9,0.3-4.7,1-5.4c0.7-0.7,2.6-1,5.5-1c3.2,0,5.9-2.7,5.9-5.9
					c0-3,0.4-4.8,1-5.5c0.7-0.7,2.5-1,5.4-1c1.6,0,3.1-0.6,4.2-1.7c1.1-1.1,1.7-2.6,1.7-4.1C58.9,37.3,58.3,35.8,57.1,34.7z"/>
			</g>
			<path class="st0" d="M83.3,33.5c2.6-0.7,4.3-3.1,4.2-5.7v-0.2c0-4.1-2.8-6.2-8-6.2c-1.7,0-3.8,0.1-4.9,0.2
				c-0.4,0.1-0.9,0.2-0.9,0.9v19.4c0,0.4,0.3,0.8,0.8,0.8h1.5c0.4,0,0.8-0.4,0.8-0.8c0,0,0,0,0,0V34c0.8,0,2,0.1,2.8,0.1H80l4.9,8.1
				c0.3,0.4,0.4,0.5,0.8,0.5h1.9c0.5,0,0.6-0.3,0.6-0.5c0-0.1,0-0.3-0.1-0.4L83.3,33.5z M84.5,27.6v0.2c0,2.6-1.4,3.6-5,3.6h-1.6
				h-1.2v-7.1c0.8-0.1,2-0.1,2.8-0.1C83,24.2,84.5,25.2,84.5,27.6z"/>
			<path class="st0" d="M101.4,21.5c-1.2-0.1-3.9-0.2-5.4-0.2c-4.2,0-6.2,1.7-6.2,5.4v10.5c0,3.7,2,5.4,6.2,5.4c0.7,0,4.2,0,5.4-0.1
				l0,0c0.3-0.1,0.5-0.3,0.5-0.7v-1.4c0-0.3-0.2-0.5-0.5-0.6H96c-2.9,0-3.1-0.8-3.1-2.6v-3.9h8.2c0.5,0,0.8-0.4,0.8-0.8v0v-1.1
				c0-0.5-0.4-0.8-0.8-0.8l0,0h-8.3v-3.9c0-1.9,0.3-2.6,3.1-2.6h5.4c0.3,0,0.6-0.2,0.6-0.6c0,0,0,0,0,0v-1.4
				C102,21.9,101.7,21.6,101.4,21.5z"/>
			<path class="st0" d="M117.8,21.4h-13.3c-0.4,0-0.8,0.3-0.8,0.8v1.2c0,0.4,0.3,0.8,0.7,0.8c0,0,0.1,0,0.1,0h5.1v17.7
				c0,0.4,0.3,0.8,0.8,0.8h1.5c0.4,0,0.8-0.4,0.8-0.8V24.1h5.1c0.4,0,0.8-0.3,0.8-0.7c0,0,0,0,0-0.1v-1.2
				C118.6,21.7,118.2,21.4,117.8,21.4C117.8,21.4,117.8,21.4,117.8,21.4z"/>
			<path class="st0" d="M128.2,21.4h-1.6c-4.4,0-6.2,1.8-6.2,6v14.4c0,0.4,0.3,0.8,0.8,0.8h1.5c0.4,0,0.8-0.4,0.8-0.8v-7.9h8v7.9
				c0,0.4,0.3,0.8,0.8,0.8h1.5c0.4,0,0.8-0.4,0.8-0.8V27.4C134.4,23.2,132.5,21.4,128.2,21.4z M123.5,27.4c0-2.8,0.8-3.2,3.2-3.2
				h1.6c2.3,0,3.2,0.5,3.2,3.2v3.8h-7.9V27.4z"/>
			<path class="st0" d="M139.9,21.4h-1.5c-0.4,0-0.8,0.3-0.8,0.7c0,0,0,0,0,0v19.7c0,0.4,0.3,0.8,0.8,0.8h1.5c0.4,0,0.8-0.4,0.8-0.8
				V22.2C140.7,21.8,140.4,21.4,139.9,21.4C140,21.4,140,21.4,139.9,21.4z"/>
			<path class="st0" d="M155.4,39.9h-5.3c-2.9,0-3.1-0.8-3.1-2.6v-15c0-0.5-0.4-0.8-0.8-0.8h-1.4c-0.5,0-0.8,0.4-0.8,0.8
				c0,0,0,0,0,0v15c0,4.8,3.1,5.4,6.2,5.4c1.8,0,3.6-0.1,5.4-0.2l0,0c0.3-0.1,0.5-0.3,0.5-0.7v-1.3C156,40.1,155.8,39.9,155.4,39.9
				C155.5,39.9,155.4,39.9,155.4,39.9z"/>
			<path class="st12" d="M168.8,40.6h-0.2c-0.9,0.1-3,0.2-4.7,0.2c-1.4,0.1-2.8-0.5-3.7-1.6c-1-1.2-1.5-3.1-1.5-5.6v-3.5
				c0-2.5,0.5-4.4,1.5-5.6c0.9-1.1,2.3-1.6,3.7-1.6c1.6,0,3.7,0.1,4.8,0.2h0.2c0.3,0,0.6-0.2,0.7-0.5c0,0,0-0.1,0-0.1v-0.3
				c0-0.4-0.4-0.7-0.8-0.8h-0.1c-1.6-0.2-3.1-0.3-4.7-0.3c-1.8-0.1-3.6,0.6-4.9,1.9c-1.4,1.5-2.2,3.9-2.2,7v3.5
				c0,7.7,4.4,8.9,7.1,8.9c1.6,0,3.1-0.1,4.7-0.3h0.1c0.4,0,0.8-0.3,0.8-0.8v-0.3c0.1-0.3-0.1-0.6-0.4-0.7
				C168.9,40.6,168.9,40.6,168.8,40.6z"/>
			<path class="st12" d="M177.5,21.4c-4.8,0-7.4,3.2-7.4,9v3.3c0,5.8,2.6,9,7.4,9c4.8,0,7.4-3.2,7.4-9v-3.3
				C184.9,24.6,182.3,21.4,177.5,21.4z M183.1,30.4v3.3c0,4.8-1.9,7.2-5.5,7.2c-3.7,0-5.6-2.4-5.6-7.2v-3.3c0-4.8,1.9-7.2,5.5-7.2
				C181.2,23.2,183.1,25.6,183.1,30.4z"/>
			<path class="st12" d="M194.2,21.4c-2.1,0-4.3,0.2-6.4,0.5c-0.4,0-0.7,0.4-0.7,0.8v19.2c0,0.4,0.3,0.8,0.7,0.8c0,0,0.1,0,0.1,0
				h0.2c0.4,0,0.8-0.4,0.8-0.8c0,0,0,0,0,0V23.4c1.4-0.1,3.4-0.3,5.2-0.3c3.5,0,4.8,1.7,4.8,5.9v12.8c0,0.4,0.3,0.8,0.8,0.8h0.3
				c0.4,0,0.8-0.4,0.8-0.8V29C200.9,23.9,198.7,21.4,194.2,21.4z"/>
			<path class="st12" d="M210.4,31.2l-1.8-1.1c-2.4-1.5-3.6-2.4-3.6-4c0-2.1,1.5-3,4.9-3c0.8,0,1.9,0.1,2.8,0.2
				c0.6,0.1,1.1,0.1,1.3,0.1c0.6,0,0.8-0.4,0.8-0.7v-0.4c0-0.4-0.3-0.8-0.8-0.8l-0.5-0.1c-1.1-0.1-2.3-0.2-3.6-0.2
				c-4.5,0-6.8,1.6-6.8,4.8c0,2.6,1.9,4,4.5,5.6l1.8,1.1c3,1.9,4,2.5,4,4.4c0.1,0.9-0.3,1.8-0.9,2.5c-0.8,0.8-2.1,1.1-3.9,1.1
				c-0.9,0-1.9-0.1-2.8-0.2l-1.3-0.1h-0.1c-0.8,0-0.8,0.5-0.8,0.7v0.4c0,0.4,0.3,0.8,0.8,0.8l0.6,0.1c1.2,0.1,2.4,0.2,3.7,0.2
				c4.5,0,6.7-1.8,6.7-5.4C215.4,34.5,213.4,33.1,210.4,31.2z"/>
			<path class="st12" d="M230.5,21.4h-0.2c-0.4,0-0.8,0.3-0.8,0.7c0,0,0,0.1,0,0.1v18.3c-1.7,0.3-3.5,0.4-5.3,0.4
				c-1.8,0-3-0.5-3.8-1.5c-0.8-1-1-2.3-1-4.4V22.2c0-0.4-0.3-0.8-0.8-0.8h-0.3c-0.4,0-0.8,0.4-0.8,0.8c0,0,0,0,0,0V35
				c0,5.1,2.2,7.6,6.6,7.6c2.2,0,4.3-0.2,6.4-0.6c0.4-0.1,0.7-0.4,0.6-0.8v-19c0-0.4-0.2-0.8-0.7-0.8
				C230.7,21.4,230.6,21.4,230.5,21.4z"/>
			<path class="st12" d="M244.4,40.9h-6.3c-1.3,0-1.8-0.2-1.8-1.7V22.2c0-0.4-0.3-0.8-0.7-0.8c0,0,0,0,0,0h-0.3
				c-0.4,0-0.8,0.4-0.8,0.8v17.1c0,2.3,1.2,3.4,3.7,3.4h6.3c0.4,0,0.8-0.3,0.8-0.7c0,0,0,0,0,0v-0.2c0-0.4-0.3-0.8-0.7-0.8
				C244.5,40.9,244.5,40.9,244.4,40.9z"/>
			<path class="st12" d="M257.2,21.4h-13.1c-0.4,0-0.8,0.3-0.8,0.7c0,0,0,0.1,0,0.1v0.2c0,0.4,0.3,0.8,0.7,0.8c0,0,0.1,0,0.1,0h5.6
				v18.7c0,0.4,0.3,0.8,0.8,0.8h0.3c0.4,0,0.8-0.4,0.8-0.8V23.1h5.6c0.4,0,0.8-0.3,0.8-0.7c0,0,0-0.1,0-0.1v-0.2
				C258,21.7,257.7,21.4,257.2,21.4C257.2,21.4,257.2,21.4,257.2,21.4z"/>
		</g>
	</g>
</g>
</svg>
